<?xml version="1.0" encoding="utf-8"?>
<!-- Generator: Adobe Illustrator 25.3.1, SVG Export Plug-In . SVG Version: 6.00 Build 0)  -->
<svg version="1.1" id="Layer_1" xmlns="http://www.w3.org/2000/svg" xmlns:xlink="http://www.w3.org/1999/xlink" x="0px" y="0px"
	 viewBox="0 0 82.8 19.6" style="enable-background:new 0 0 82.8 19.6;" xml:space="preserve">
<path d="M64.1,19.6h-2.9V5.9h2.9V19.6z"/>
<path d="M6.3,8.7C5.8,8.7,5.4,8.8,5,9C4.6,9.2,4.2,9.5,3.9,9.8c-0.7,0.8-1,1.9-1,2.9c-0.1,1.1,0.3,2.1,1,3c0.3,0.3,0.7,0.6,1.1,0.8
	c0.4,0.2,0.9,0.3,1.3,0.3c0.8,0,1.5-0.2,2.1-0.7c0.5-0.4,0.8-1,1-1.7l2.6,1c-0.3,1.2-1,2.2-2,3c-1,0.9-2.3,1.3-3.7,1.2
	c-1.7,0-3.4-0.7-4.5-2c-1.2-1.3-1.9-3.1-1.8-4.9c-0.1-1.8,0.6-3.6,1.8-4.9c1.1-1.3,2.8-2,4.5-1.9C7.6,5.8,9,6.3,10,7.1
	c0.9,0.8,1.6,1.8,1.9,3l-2.6,1c-0.2-0.6-0.5-1.2-1-1.7C7.8,8.9,7,8.7,6.3,8.7z"/>
<path d="M16.8,15.7c0.3,0.3,0.7,0.6,1.1,0.8c0.9,0.4,1.8,0.4,2.7,0c0.4-0.2,0.8-0.5,1.1-0.8c0.7-0.8,1.1-1.9,1-3
	c0.1-1.1-0.3-2.1-1-3c-1.3-1.4-3.4-1.4-4.8-0.1c0,0-0.1,0.1-0.1,0.1c-0.7,0.8-1.1,1.9-1,3C15.7,13.8,16.1,14.8,16.8,15.7z M19.3,5.9
	c1.8-0.1,3.4,0.6,4.6,1.9c1.2,1.3,1.9,3.1,1.8,4.9c0.1,1.8-0.6,3.6-1.8,4.9c-1.2,1.3-2.9,2-4.6,1.9c-1.7,0-3.4-0.7-4.6-1.9
	c-1.2-1.3-1.9-3.1-1.8-4.9c-0.1-1.8,0.6-3.6,1.8-4.9C15.8,6.5,17.5,5.8,19.3,5.9z"/>
<path d="M33.3,6v3.1C33,9,32.7,9,32.4,9c-2.2,0-3.3,1.1-3.3,3.7v6.8h-2.9V5.9H29v2.2c0.3-0.7,0.8-1.2,1.4-1.6
	c0.7-0.4,1.4-0.6,2.2-0.6C32.8,5.9,33.1,5.9,33.3,6z"/>
<path d="M37.3,11.3h6.5c0-0.4-0.1-0.8-0.2-1.1c-0.2-0.3-0.4-0.7-0.6-0.9c-0.7-0.6-1.5-0.9-2.4-0.8C38.9,8.4,37.4,9.6,37.3,11.3
	L37.3,11.3z M44.2,14.6l2.7,0.8c-0.4,1.2-1.1,2.2-2.1,2.9c-1.1,0.8-2.5,1.2-3.9,1.1c-1.8,0-3.5-0.6-4.8-1.9c-1.3-1.3-2.1-3.1-2-5
	C34,10.8,34.7,9.1,36,7.8c1.2-1.2,2.8-1.9,4.5-1.9c1.8-0.1,3.5,0.6,4.8,1.8c1.2,1.3,1.8,3.1,1.7,4.9c0,0.3,0,0.7-0.1,1h-9.7
	c0,0.5,0.1,0.9,0.3,1.3c0.2,0.4,0.5,0.8,0.8,1.1c0.7,0.6,1.6,1,2.5,0.9C42.3,17,43.7,16.1,44.2,14.6L44.2,14.6z"/>
<path d="M50.6,19.6h-3V0h3v7.9c0.4-0.6,0.9-1.1,1.6-1.4C54.5,5.4,57.2,6,59,7.8c1.1,1.4,1.6,3.1,1.6,4.8c0.1,1.8-0.5,3.5-1.6,4.9
	c-1.1,1.3-2.7,2-4.4,1.9c-1.6,0.1-3.1-0.7-3.9-2V19.6z M56.5,15.7c0.7-0.8,1-1.9,1-3c0.1-1.1-0.3-2.1-0.9-3C55.9,9,55,8.6,54,8.7
	c-0.9,0-1.9,0.4-2.5,1.1c-0.7,0.8-1,1.9-1,3c-0.1,1.1,0.3,2.1,1,3c1.2,1.4,3.3,1.5,4.7,0.3C56.3,15.9,56.4,15.8,56.5,15.7L56.5,15.7
	z"/>
<path d="M77.8,19.6H65v-2.7l8.1-8.2h-8.2V5.9h12.9v2.6l-8.2,8.3h8.2V19.6z"/>
<path d="M79.3,19c-0.2-0.2-0.3-0.4-0.5-0.7c-0.1-0.3-0.2-0.5-0.1-0.8c0-0.3,0-0.6,0.1-0.8c0.1-0.3,0.3-0.5,0.5-0.7
	c0.2-0.2,0.4-0.4,0.7-0.5c0.3-0.1,0.5-0.2,0.8-0.2c0.6,0,1.1,0.2,1.5,0.6c0.4,0.4,0.6,1,0.6,1.5c0,0.3,0,0.6-0.2,0.8
	c-0.1,0.3-0.3,0.5-0.5,0.7c-0.2,0.2-0.4,0.4-0.7,0.5c-0.3,0.1-0.5,0.2-0.8,0.2c-0.3,0-0.5,0-0.8-0.2C79.7,19.3,79.5,19.2,79.3,19z"
	/>
</svg>
