<svg id="Layer_1" data-name="Layer 1" xmlns="http://www.w3.org/2000/svg" viewBox="0 0 82.81 19.62"><defs><style>.cls-1{fill:#fff;}</style></defs><path class="cls-1" d="M64.12,19.56h-2.9V5.93h2.9Z" transform="translate(0)"/><path class="cls-1" d="M6.3,8.73A3,3,0,0,0,5,9a3.31,3.31,0,0,0-1.09.8,4.2,4.2,0,0,0-1,2.94,4.26,4.26,0,0,0,1,3,3.27,3.27,0,0,0,1.1.82,3,3,0,0,0,1.33.27,2.86,2.86,0,0,0,2.06-.73,3.55,3.55,0,0,0,1-1.66l2.57,1a6.22,6.22,0,0,1-2,3,5.43,5.43,0,0,1-3.69,1.24,5.9,5.9,0,0,1-4.52-2A7,7,0,0,1,0,12.74a6.93,6.93,0,0,1,1.8-4.9A5.87,5.87,0,0,1,6.27,5.89,5.62,5.62,0,0,1,10,7.14a5.78,5.78,0,0,1,1.88,3l-2.62,1a3.53,3.53,0,0,0-1-1.71A2.75,2.75,0,0,0,6.3,8.73Z" transform="translate(0)"/><path class="cls-1" d="M16.8,15.68a3.5,3.5,0,0,0,1.13.81,3.33,3.33,0,0,0,2.68,0,3.62,3.62,0,0,0,1.14-.8,4.22,4.22,0,0,0,1-3,4.08,4.08,0,0,0-1-3,3.4,3.4,0,0,0-4.8-.14l-.14.14a4.08,4.08,0,0,0-1,3A4.2,4.2,0,0,0,16.8,15.68Zm2.47-9.79a6.18,6.18,0,0,1,4.65,1.92,6.84,6.84,0,0,1,1.83,4.89,6.88,6.88,0,0,1-1.83,4.89,6.16,6.16,0,0,1-4.65,1.93,6.16,6.16,0,0,1-4.62-1.93,6.88,6.88,0,0,1-1.83-4.9,6.84,6.84,0,0,1,1.83-4.88A6.12,6.12,0,0,1,19.27,5.89Z" transform="translate(0)"/><path class="cls-1" d="M33.32,6V9.09a6.22,6.22,0,0,0-1-.08c-2.2,0-3.29,1.14-3.29,3.66v6.85H26.14V5.93H29V8.11a3.33,3.33,0,0,1,1.38-1.63,4,4,0,0,1,2.17-.59A3.46,3.46,0,0,1,33.32,6Z" transform="translate(0)"/><path class="cls-1" d="M37.31,11.3h6.51a3.09,3.09,0,0,0-.25-1.12,2.89,2.89,0,0,0-.64-.91,3.25,3.25,0,0,0-2.38-.82,3.11,3.11,0,0,0-3.24,2.84Zm6.85,3.34,2.67.82a5.76,5.76,0,0,1-2.14,2.91,6.3,6.3,0,0,1-3.85,1.15A6.74,6.74,0,0,1,36,17.65a6.55,6.55,0,0,1-2-5A6.51,6.51,0,0,1,36,7.79a6.76,6.76,0,0,1,9.3-.1A6.71,6.71,0,0,1,47,12.56a2.9,2.9,0,0,1-.08,1H37.23a3.24,3.24,0,0,0,1.1,2.39,3.62,3.62,0,0,0,2.52,1,3.15,3.15,0,0,0,3.32-2.23Z" transform="translate(0)"/><path class="cls-1" d="M50.59,19.57h-3V0h3V7.88A3.63,3.63,0,0,1,52.16,6.5,5.87,5.87,0,0,1,59,7.84a7.32,7.32,0,0,1,1.57,4.84,7.4,7.4,0,0,1-1.64,4.93,5.45,5.45,0,0,1-4.38,1.92,4.22,4.22,0,0,1-3.94-2Zm5.92-3.88a4.36,4.36,0,0,0,1-3,4.38,4.38,0,0,0-.94-3A3.12,3.12,0,0,0,54,8.67a3.18,3.18,0,0,0-2.48,1.08,4.22,4.22,0,0,0-1,3,4.34,4.34,0,0,0,1,3,3.33,3.33,0,0,0,4.7.27,3.19,3.19,0,0,0,.26-.26Z" transform="translate(0)"/><path class="cls-1" d="M77.84,19.55H65V16.88l8.09-8.25H64.91V5.93H77.82v2.6l-8.18,8.31h8.2Z" transform="translate(0)"/><path class="cls-1" d="M79.27,19a2.15,2.15,0,0,1-.6-1.53,2,2,0,0,1,.15-.83,2.14,2.14,0,0,1,.45-.71,2,2,0,0,1,.66-.48,1.81,1.81,0,0,1,.8-.15,2.06,2.06,0,0,1,1.47.63,2.27,2.27,0,0,1,.61,1.54,2.34,2.34,0,0,1-.15.83,2.18,2.18,0,0,1-.46.7,1.86,1.86,0,0,1-.68.46,1.82,1.82,0,0,1-.8.16A1.89,1.89,0,0,1,79.27,19Z" transform="translate(0)"/></svg>